<?xml version="1.0" standalone="no"?>
<!DOCTYPE svg PUBLIC "-//W3C//DTD SVG 20010904//EN"
 "http://www.w3.org/TR/2001/REC-SVG-20010904/DTD/svg10.dtd">
<svg version="1.0" xmlns="http://www.w3.org/2000/svg"
 width="512.000000pt" height="512.000000pt" viewBox="0 0 512.000000 512.000000"
 preserveAspectRatio="xMidYMid meet">
<metadata>
Created by potrace 1.11, written by Peter Selinger 2001-2013
</metadata>
<g transform="translate(0.000000,512.000000) scale(0.100000,-0.100000)"
fill="#000000" stroke="none">
<path d="M2379 5116 c-2 -2 -40 -6 -83 -10 -44 -4 -82 -9 -85 -11 -4 -2 -34
-7 -66 -10 -109 -13 -387 -87 -490 -130 -16 -7 -55 -23 -85 -35 -176 -71 -391
-196 -555 -320 -572 -436 -923 -1060 -1003 -1785 -9 -81 -9 -411 0 -505 22
-234 98 -530 193 -755 28 -66 132 -272 153 -302 10 -15 39 -59 63 -98 103
-163 284 -373 449 -518 348 -307 834 -537 1277 -603 21 -3 49 -7 63 -10 104
-19 470 -26 605 -11 642 69 1221 362 1645 833 160 177 277 349 383 560 106
212 190 452 222 633 3 19 7 37 9 40 3 5 9 42 22 131 20 146 26 455 12 600 -68
681 -409 1314 -938 1739 -196 158 -405 281 -665 391 -142 61 -419 133 -595
156 -25 3 -56 8 -70 10 -29 6 -456 15 -461 10z"/>
</g>
</svg>
